<svg id="Capa_1" enable-background="new 0 0 511.946 511.946" height="512" viewBox="0 0 511.946 511.946" width="512" xmlns="http://www.w3.org/2000/svg"><path d="m494.446 447.573h-476.946c-5.523 0-10-4.477-10-10v-363.2c0-5.523 4.477-10 10-10h476.946c5.523 0 10 4.477 10 10v363.199c0 5.524-4.477 10.001-10 10.001z" fill="#ffcd6b"/><path d="m504.443 74.373v363.2c0 5.523-4.477 10-10 10h-53.04c16.94 0 30.66-13.73 30.66-30.66v-321.88c0-16.93-13.72-30.66-30.66-30.66h53.04c5.523 0 10 4.477 10 10z" fill="#ffc143"/><path d="m343.214 236.489c-19.127-29.623-51.98-47.516-87.241-47.516-35.261 0-68.114 17.893-87.241 47.516l-136.296 211.084h223.537 223.537z" fill="#fa0"/><path d="m479.513 447.573h-43.57l-136.3-211.08c-15.11-23.41-38.78-39.49-65.45-45.21 7.08-1.52 14.38-2.31 21.78-2.31 35.26 0 68.11 17.89 87.24 47.52z" fill="#ff9500"/><path d="m255.973 64.373h-221.487l185.682 193.67c19.976 19.28 51.633 19.28 71.609 0l185.683-193.67z" fill="#ffe1a8"/><path d="m477.463 64.373-185.69 193.67c-14.56 14.05-35.33 17.86-53.25 11.42 6.66-2.39 12.94-6.19 18.35-11.42l185.68-193.67z" fill="#ffd98f"/><path d="m494.446 56.874h-16.986-442.974-16.986c-9.649 0-17.5 7.851-17.5 17.5v363.199c0 9.649 7.851 17.5 17.5 17.5h307.807c4.142 0 7.5-3.358 7.5-7.5s-3.358-7.5-7.5-7.5h-279.1l128.826-199.516c2.404-3.723 5.058-7.219 7.893-10.522l31.83 33.199c.067.07.135.139.205.206 11.499 11.098 26.256 16.647 41.013 16.647s29.514-5.549 41.013-16.647c.07-.067.138-.136.205-.206l31.829-33.198c2.834 3.304 5.489 6.797 7.893 10.521l128.826 199.516h-107.747c-4.142 0-7.5 3.358-7.5 7.5s3.358 7.5 7.5 7.5h136.453c9.649 0 17.5-7.851 17.5-17.5v-363.199c0-9.65-7.85-17.5-17.5-17.5zm-207.977 195.87c-17.128 16.43-43.863 16.43-60.991 0l-116.189-121.187c-2.866-2.989-7.614-3.09-10.604-.223-2.99 2.866-3.09 7.614-.223 10.604l74.036 77.221c-3.639 4.133-7.02 8.545-10.066 13.262l-134.081 207.652h-10.851c-1.378 0-2.5-1.122-2.5-2.5v-363.199c0-1.378 1.122-2.5 2.5-2.5h13.787l43.603 45.479c2.866 2.99 7.614 3.09 10.604.223s3.09-7.614.223-10.604l-33.65-35.098h407.813zm210.477 184.829c0 1.378-1.122 2.5-2.5 2.5h-10.851l-134.08-207.653c-3.046-4.717-6.415-9.142-10.054-13.274l141.199-147.272h13.787c1.378 0 2.5 1.122 2.5 2.5v363.199z"/></svg>