<?xml version="1.0" encoding="iso-8859-1"?>
<!-- Generator: Adobe Illustrator 19.0.0, SVG Export Plug-In . SVG Version: 6.00 Build 0)  -->
<svg version="1.1" id="Layer_1" xmlns="http://www.w3.org/2000/svg" xmlns:xlink="http://www.w3.org/1999/xlink" x="0px" y="0px"
	 viewBox="0 0 512 512" style="enable-background:new 0 0 512 512;" xml:space="preserve">
<rect x="10.894" y="256" style="fill:#DB5446;" width="163.404" height="100.766"/>
<rect x="174.298" y="256" style="fill:#B0483E;" width="163.404" height="100.766"/>
<g>
	<rect x="337.702" y="256" style="fill:#DB5446;" width="163.404" height="100.766"/>
	<rect x="95.864" y="356.766" style="fill:#DB5446;" width="156.868" height="100.766"/>
</g>
<rect x="252.732" y="356.766" style="fill:#B0483E;" width="163.404" height="100.766"/>
<rect x="416.136" y="356.766" style="fill:#DB5446;" width="84.97" height="100.766"/>
<g>
	<rect x="10.894" y="356.766" style="fill:#B0483E;" width="84.97" height="100.766"/>
	<path style="fill:#B0483E;" d="M10.894,155.234V54.468h163.404v100.766H10.894z"/>
</g>
<rect x="174.298" y="54.468" style="fill:#DB5446;" width="163.404" height="100.766"/>
<g>
	<rect x="337.702" y="54.468" style="fill:#B0483E;" width="163.404" height="100.766"/>
	<rect x="95.864" y="155.234" style="fill:#B0483E;" width="156.868" height="100.766"/>
</g>
<rect x="252.732" y="155.234" style="fill:#DB5446;" width="163.404" height="100.766"/>
<rect x="416.136" y="155.234" style="fill:#B0483E;" width="84.97" height="100.766"/>
<rect x="10.894" y="155.234" style="fill:#DB5446;" width="84.97" height="100.766"/>
<g>
	<path style="fill:#231F20;" d="M501.106,43.574H10.894C4.877,43.574,0,48.453,0,54.468v403.064c0,6.015,4.877,10.894,10.894,10.894
		h490.213c6.015,0,10.894-4.878,10.894-10.894V54.468C512,48.453,507.122,43.574,501.106,43.574z M490.213,345.872h-74.077h-67.54
		v-78.979h67.54h74.077V345.872z M21.787,166.128H84.97v78.979H21.787V166.128z M405.243,245.106h-67.54h-74.077v-78.979h74.077
		h67.54V245.106z M326.809,345.872h-74.077h-67.54v-78.979h67.54h74.077V345.872z M326.809,144.34h-74.077h-67.54V65.362h141.617
		V144.34z M174.298,166.128h67.54v78.979h-67.54h-67.54v-78.979H174.298z M21.787,266.894h74.077h67.54v78.979h-67.54H21.787
		V266.894z M21.787,367.66H84.97v78.979H21.787V367.66z M106.757,367.66h67.54h67.54v78.979H106.757V367.66z M263.626,367.66h74.077
		h67.54v78.979H263.626V367.66z M490.213,245.106H427.03v-78.979h63.183V245.106z M490.213,144.34h-74.077h-67.54V65.362h141.617
		V144.34z M21.787,65.362h141.617v78.979h-67.54H21.787V65.362z M490.213,446.638H427.03V367.66h63.183V446.638z"/>
	<path style="fill:#231F20;" d="M80.94,77.137H40.116c-6.017,0-10.894,4.878-10.894,10.894c0,6.015,4.877,10.894,10.894,10.894
		H80.94c6.017,0,10.894-4.878,10.894-10.894C91.833,82.015,86.956,77.137,80.94,77.137z"/>
	<path style="fill:#231F20;" d="M111.619,98.924h18.156c6.017,0,10.894-4.878,10.894-10.894c0-6.015-4.877-10.894-10.894-10.894
		h-18.156c-6.017,0-10.894,4.878-10.894,10.894C100.726,94.046,105.603,98.924,111.619,98.924z"/>
</g>
<g>
</g>
<g>
</g>
<g>
</g>
<g>
</g>
<g>
</g>
<g>
</g>
<g>
</g>
<g>
</g>
<g>
</g>
<g>
</g>
<g>
</g>
<g>
</g>
<g>
</g>
<g>
</g>
<g>
</g>
</svg>
