<?xml version="1.0" encoding="UTF-8" standalone="no"?>
<!DOCTYPE svg PUBLIC "-//W3C//DTD SVG 1.1//EN" "http://www.w3.org/Graphics/SVG/1.1/DTD/svg11.dtd">
<svg version="1.1" xmlns="http://www.w3.org/2000/svg" xmlns:xlink="http://www.w3.org/1999/xlink" preserveAspectRatio="xMidYMid meet" viewBox="0 0 160 55" width="160" height="55"><defs><path d="M24.36 34.34L21.37 44.52L16.32 44.52L10.35 24.16L16.58 24.16L19.3 35.06L22.03 24.16L26.69 24.16L29.41 35.06L32.13 24.16L38.36 24.16L32.4 44.52L27.33 44.52L24.36 34.34" id="c2CGUyOhoU"></path><path d="M45.49 24.16L51.32 24.16L51.32 44.52L45.49 44.52L45.49 24.16" id="aYBj6aurF"></path><path d="M101.17 24.16C101.17 25.19 101.17 25.77 101.17 25.88C101.17 27.63 99.91 29.04 98.36 29.04C97.38 29.04 92.53 29.04 83.78 29.04L83.78 24.16L101.17 24.16" id="b6CVvikf2"></path><path d="M101.17 33.38C101.17 34.44 101.17 35.04 101.17 35.15C101.17 36.01 100.55 36.71 99.79 36.71C98.72 36.71 93.39 36.71 83.78 36.71L83.78 31.82C93.39 31.82 98.72 31.82 99.79 31.82C100.55 31.82 101.17 32.52 101.17 33.38" id="a1KjrJItlY"></path><path d="M101.17 42.79L101.17 44.52L83.78 44.52L83.78 39.63C92.53 39.63 97.38 39.63 98.36 39.63C99.91 39.63 101.17 41.04 101.17 42.79" id="cbJvdaeKe"></path><path d="M66.23 29.98L66.23 38.69C67.09 38.69 67.57 38.69 67.66 38.69C68.82 38.69 69.78 38.28 70.54 37.45C71.3 36.61 71.68 35.58 71.68 34.34C71.68 33.1 71.3 32.06 70.54 31.23C69.78 30.39 68.82 29.98 67.66 29.98C67.47 29.98 66.99 29.98 66.23 29.98ZM67.66 24.16C70.48 24.16 72.83 25.15 74.7 27.14C76.58 29.12 77.51 31.52 77.51 34.34C77.51 37.15 76.58 39.55 74.7 41.53C72.83 43.52 70.48 44.52 67.66 44.52C67.18 44.52 64.76 44.52 60.4 44.52L60.4 24.16L67.66 24.16" id="b1p6sSuIyp"></path><path d="M116.92 29.98C116.74 29.98 115.83 29.98 114.19 29.98L114.19 32.89C115.83 32.89 116.74 32.89 116.92 32.89C117.37 32.89 117.72 32.76 117.97 32.5C118.22 32.24 118.35 31.88 118.35 31.43C118.35 30.98 118.22 30.63 117.98 30.37C117.73 30.11 117.37 29.98 116.92 29.98ZM108.37 24.16C113.73 24.16 116.71 24.16 117.31 24.16C119.35 24.16 121.01 24.85 122.28 26.24C123.55 27.62 124.19 29.35 124.19 31.43C124.19 32.24 124.09 33 123.89 33.71C123.69 34.42 123.45 34.99 123.17 35.43C122.9 35.86 122.62 36.24 122.34 36.55C122.07 36.86 121.83 37.08 121.62 37.19C121.6 37.2 121.5 37.27 121.34 37.39L124.83 44.52L118.74 44.52L116.02 38.69L114.19 38.69L114.19 44.52L108.37 44.52L108.37 24.16" id="aSnR1YPfK"></path><path d="M132.53 22.86C132.53 27.35 136.07 31 140.43 31C144.78 31 148.33 27.35 148.33 22.86C148.33 18.37 144.78 14.72 140.43 14.72C136.07 14.72 132.53 18.37 132.53 22.86ZM140.43 31.82C135.63 31.82 131.73 27.8 131.73 22.86C131.73 17.92 135.63 13.9 140.43 13.9C145.22 13.9 149.12 17.92 149.12 22.86C149.12 27.8 145.22 31.82 140.43 31.82" id="a1d0HLWAU"></path><path d="M493.65 417.27L494.23 417.27L494.23 423.49L493.65 423.49L493.65 417.27" id="apY1iUPqd"></path><path d="M497.32 417.27L497.9 417.27L501.03 422.33L501.03 417.27L501.6 417.27L501.6 423.49L501.03 423.49L497.9 418.43L497.9 423.49L497.32 423.49L497.32 417.27" id="c5m86MsOzO"></path><path d="M503.8 420.38C503.8 418.63 504.99 417.17 506.39 417.17C507.09 417.17 507.74 417.53 508.21 418.11C508.17 418.16 507.86 418.55 507.82 418.6C507.45 418.12 506.94 417.82 506.39 417.82C505.3 417.82 504.38 418.99 504.38 420.38C504.38 421.77 505.3 422.95 506.39 422.95C506.94 422.95 507.45 422.64 507.82 422.16C507.86 422.21 508.17 422.6 508.21 422.65C507.74 423.22 507.09 423.6 506.39 423.6C504.99 423.6 503.8 422.12 503.8 420.38" id="cT8rLUu0V"></path></defs><g><g><g><use xlink:href="#c2CGUyOhoU" opacity="1" fill="#ffffff" fill-opacity="1"></use><g><use xlink:href="#c2CGUyOhoU" opacity="1" fill-opacity="0" stroke="#000000" stroke-width="1" stroke-opacity="0"></use></g></g><g><use xlink:href="#aYBj6aurF" opacity="1" fill="#ffffff" fill-opacity="1"></use><g><use xlink:href="#aYBj6aurF" opacity="1" fill-opacity="0" stroke="#000000" stroke-width="1" stroke-opacity="0"></use></g></g><g><use xlink:href="#b6CVvikf2" opacity="1" fill="#e11d25" fill-opacity="1"></use><g><use xlink:href="#b6CVvikf2" opacity="1" fill-opacity="0" stroke="#000000" stroke-width="1" stroke-opacity="0"></use></g></g><g><use xlink:href="#a1KjrJItlY" opacity="1" fill="#e11d25" fill-opacity="1"></use><g><use xlink:href="#a1KjrJItlY" opacity="1" fill-opacity="0" stroke="#000000" stroke-width="1" stroke-opacity="0"></use></g></g><g><use xlink:href="#cbJvdaeKe" opacity="1" fill="#e11d25" fill-opacity="1"></use><g><use xlink:href="#cbJvdaeKe" opacity="1" fill-opacity="0" stroke="#000000" stroke-width="1" stroke-opacity="0"></use></g></g><g><use xlink:href="#b1p6sSuIyp" opacity="1" fill="#ffffff" fill-opacity="1"></use><g><use xlink:href="#b1p6sSuIyp" opacity="1" fill-opacity="0" stroke="#000000" stroke-width="1" stroke-opacity="0"></use></g></g><g><use xlink:href="#aSnR1YPfK" opacity="1" fill="#ffffff" fill-opacity="1"></use><g><use xlink:href="#aSnR1YPfK" opacity="1" fill-opacity="0" stroke="#000000" stroke-width="1" stroke-opacity="0"></use></g></g><g><use xlink:href="#a1d0HLWAU" opacity="1" fill="#ffffff" fill-opacity="1"></use><g><use xlink:href="#a1d0HLWAU" opacity="1" fill-opacity="0" stroke="#000000" stroke-width="1" stroke-opacity="0"></use></g></g><g><use xlink:href="#apY1iUPqd" opacity="1" fill="#ffffff" fill-opacity="1"></use><g><use xlink:href="#apY1iUPqd" opacity="1" fill-opacity="0" stroke="#000000" stroke-width="1" stroke-opacity="0"></use></g></g><g><use xlink:href="#c5m86MsOzO" opacity="1" fill="#ffffff" fill-opacity="1"></use><g><use xlink:href="#c5m86MsOzO" opacity="1" fill-opacity="0" stroke="#000000" stroke-width="1" stroke-opacity="0"></use></g></g><g><use xlink:href="#cT8rLUu0V" opacity="1" fill="#ffffff" fill-opacity="1"></use><g><use xlink:href="#cT8rLUu0V" opacity="1" fill-opacity="0" stroke="#000000" stroke-width="1" stroke-opacity="0"></use></g></g></g></g></svg>