<?xml version="1.0" encoding="UTF-8" standalone="no"?>
<svg
   xmlns:dc="http://purl.org/dc/elements/1.1/"
   xmlns:cc="http://creativecommons.org/ns#"
   xmlns:rdf="http://www.w3.org/1999/02/22-rdf-syntax-ns#"
   xmlns:svg="http://www.w3.org/2000/svg"
   xmlns="http://www.w3.org/2000/svg"
   viewBox="0 0 1333.3333 1333.3333"
   height="1333.3333"
   width="1333.3333"
   xml:space="preserve"
   id="svg2"
   version="1.1"><metadata
     id="metadata8"><rdf:RDF><cc:Work
         rdf:about=""><dc:format>image/svg+xml</dc:format><dc:type
           rdf:resource="http://purl.org/dc/dcmitype/StillImage" /></cc:Work></rdf:RDF></metadata><defs
     id="defs6" /><g
     transform="matrix(1.3333333,0,0,-1.3333333,0,1333.3333)"
     id="g10"><g
       transform="scale(0.1)"
       id="g12"><path
         id="path14"
         style="fill:#ffffff;fill-opacity:1;fill-rule:nonzero;stroke:none"
         d="m 2391.96,4872.39 -164.77,-500.57 h -278.56 l -328.84,1001.16 h 343.5 l 150.1,-536.19 150.1,536.19 h 256.92 l 150.11,-536.19 150.11,536.19 h 343.5 L 2835.29,4371.82 h -279.27 l -164.06,500.57" /><path
         id="path16"
         style="fill:#ffffff;fill-opacity:1;fill-rule:nonzero;stroke:none"
         d="m 3556.91,5372.98 h 321.15 V 4371.82 h -321.15 v 1001.16" /><path
         id="path18"
         style="fill:#ffffff;fill-opacity:1;fill-rule:nonzero;stroke:none"
         d="m 6626.44,5372.98 v -85.01 c 0,-85.74 -69.51,-155.25 -155.24,-155.25 h -803.28 v 240.26 h 958.52" /><path
         id="path20"
         style="fill:#ffffff;fill-opacity:1;fill-rule:nonzero;stroke:none"
         d="m 6626.44,4919.58 v -87.44 c 0,-42.2 -34.21,-76.41 -76.41,-76.41 h -882.11 v 240.26 h 882.11 c 42.2,0 76.41,-34.21 76.41,-76.41" /><path
         id="path22"
         style="fill:#ffffff;fill-opacity:1;fill-rule:nonzero;stroke:none"
         d="m 6626.44,4456.82 v -85.01 h -958.52 v 240.25 h 803.28 c 85.73,0 155.24,-69.5 155.24,-155.24" /><path
         id="path24"
         style="fill:#ffffff;fill-opacity:1;fill-rule:nonzero;stroke:none"
         d="m 4700.22,5086.73 v -428.67 h 78.89 c 63.77,0 116.59,20.47 158.48,61.44 41.9,40.96 62.83,91.93 62.83,152.89 0,60.98 -20.93,111.95 -62.83,152.9 -41.89,40.96 -94.71,61.44 -158.48,61.44 z m 78.89,286.25 c 155.46,0 284.85,-48.87 388.18,-146.61 103.33,-97.75 154.99,-215.74 154.99,-353.98 0,-138.23 -51.66,-256.22 -154.99,-353.96 -103.33,-97.75 -232.72,-146.61 -388.18,-146.61 h -400.04 v 1001.16 h 400.04" /><path
         id="path26"
         style="fill:#ffffff;fill-opacity:1;fill-rule:nonzero;stroke:none"
         d="m 7552.7,5067.53 c -13.73,12.8 -33.16,19.2 -58.3,19.2 h -150.1 v -143.12 h 150.1 c 24.68,0 43.98,6.4 57.95,19.2 13.96,12.79 20.95,30.25 20.95,52.36 0,22.1 -6.87,39.57 -20.6,52.36 z m -529.56,305.45 h 492.91 c 112.64,0 203.97,-34.1 274.02,-102.29 70.05,-68.18 105.08,-153.24 105.08,-255.17 0,-40.03 -5.47,-77.49 -16.4,-112.41 -10.94,-34.9 -24.1,-63.06 -39.46,-84.48 -15.35,-21.4 -30.59,-39.78 -45.72,-55.15 -15.13,-15.36 -28.52,-25.83 -40.15,-31.42 l -15.36,-9.77 192.7,-350.47 h -335.82 l -150.1,286.24 H 7344.3 v -286.24 h -321.16 v 1001.16" /><path
         id="path28"
         style="fill:#ffffff;fill-opacity:1;fill-rule:nonzero;stroke:none"
         d="m 8215.36,5613.11 c -82.58,0 -149.78,-67.19 -149.78,-149.77 0,-82.58 67.2,-149.78 149.78,-149.78 82.57,0 149.77,67.2 149.77,149.78 0,82.58 -67.2,149.77 -149.77,149.77 z m 0,-314.62 c -90.9,0 -164.86,73.95 -164.86,164.85 0,90.9 73.96,164.85 164.86,164.85 90.89,0 164.85,-73.95 164.85,-164.85 0,-90.9 -73.96,-164.85 -164.85,-164.85" /><path
         id="path30"
         style="fill:#ffffff;fill-opacity:1;fill-rule:nonzero;stroke:none"
         d="m 8114.81,5498.26 h 7.93 v -69.83 h -7.93 v 69.83" /><path
         id="path32"
         style="fill:#ffffff;fill-opacity:1;fill-rule:nonzero;stroke:none"
         d="m 8165.5,5498.26 h 7.93 l 43.31,-56.83 v 56.83 h 7.93 v -69.83 h -7.93 l -43.31,56.81 v -56.81 h -7.93 v 69.83" /><path
         id="path34"
         style="fill:#ffffff;fill-opacity:1;fill-rule:nonzero;stroke:none"
         d="m 8255.01,5463.4 c 0,19.62 16.48,36.08 35.79,36.08 9.65,0 18.6,-4.07 25.1,-10.67 l -5.38,-5.49 c -5.09,5.39 -12.1,8.84 -19.72,8.84 -15.04,0 -27.75,-13.21 -27.75,-28.76 0,-15.66 12.71,-28.88 27.75,-28.88 7.62,0 14.63,3.46 19.72,8.85 l 5.38,-5.49 c -6.5,-6.5 -15.45,-10.67 -25.1,-10.67 -19.31,0 -35.79,16.56 -35.79,36.19" /></g></g></svg>