<?xml version="1.0" encoding="UTF-8" standalone="no"?>
<!DOCTYPE svg PUBLIC "-//W3C//DTD SVG 1.1//EN" "http://www.w3.org/Graphics/SVG/1.1/DTD/svg11.dtd">
<svg version="1.1" xmlns="http://www.w3.org/2000/svg" xmlns:xlink="http://www.w3.org/1999/xlink" preserveAspectRatio="xMidYMid meet" viewBox="0 0 165 60" width="165" height="60"><defs><path d="M21.8 32.64L18.16 49.66L12.01 49.66L4.74 15.61L12.33 15.61L15.65 33.85L18.96 15.61L24.64 15.61L27.96 33.85L31.27 15.61L38.86 15.61L31.6 49.66L25.43 49.66L21.8 32.64" id="a10qjWBMdW"></path><path d="M47.54 15.61L54.64 15.61L54.64 49.66L47.54 49.66L47.54 15.61" id="c4uzVeCqCQ"></path><path d="M115.37 15.61C115.37 17.35 115.37 18.31 115.37 18.51C115.37 21.42 113.83 23.79 111.94 23.79C110.75 23.79 104.84 23.79 94.19 23.79L94.19 15.61L115.37 15.61" id="b6Jz8Im2m4"></path><path d="M115.37 31.03C115.37 32.82 115.37 33.81 115.37 34.01C115.37 35.44 114.61 36.61 113.68 36.61C112.38 36.61 105.88 36.61 94.19 36.61L94.19 28.44C105.88 28.44 112.38 28.44 113.68 28.44C114.61 28.44 115.37 29.6 115.37 31.03" id="bZod7oxNA"></path><path d="M115.37 46.77L115.37 49.66L94.19 49.66L94.19 41.49C104.84 41.49 110.75 41.49 111.94 41.49C113.83 41.49 115.37 43.86 115.37 46.77" id="a4VeQeWYj"></path><path d="M72.81 25.35L72.81 39.93C73.85 39.93 74.43 39.93 74.55 39.93C75.96 39.93 77.12 39.23 78.05 37.84C78.98 36.45 79.44 34.71 79.44 32.64C79.44 30.57 78.98 28.83 78.05 27.44C77.12 26.05 75.96 25.35 74.55 25.35C74.32 25.35 73.73 25.35 72.81 25.35ZM74.55 15.61C77.98 15.61 80.84 17.28 83.13 20.6C85.41 23.92 86.55 27.94 86.55 32.64C86.55 37.34 85.41 41.35 83.13 44.68C80.84 48 77.98 49.66 74.55 49.66C73.96 49.66 71.01 49.66 65.71 49.66L65.71 15.61L74.55 15.61" id="bP6aIxsif"></path><path d="M134.54 25.35C134.32 25.35 133.22 25.35 131.23 25.35L131.23 30.22C133.22 30.22 134.32 30.22 134.54 30.22C135.09 30.22 135.52 30 135.82 29.56C136.13 29.13 136.29 28.54 136.29 27.78C136.29 27.03 136.14 26.44 135.83 26C135.53 25.57 135.1 25.35 134.54 25.35ZM124.13 15.61C130.67 15.61 134.3 15.61 135.02 15.61C137.51 15.61 139.53 16.77 141.08 19.09C142.62 21.41 143.4 24.3 143.4 27.77C143.4 29.13 143.28 30.41 143.04 31.59C142.79 32.78 142.5 33.74 142.16 34.47C141.83 35.2 141.49 35.82 141.15 36.34C140.82 36.87 140.52 37.22 140.27 37.41C140.24 37.43 140.13 37.54 139.93 37.74L144.19 49.66L136.77 49.66L133.45 39.93L131.23 39.93L131.23 49.66L124.13 49.66L124.13 15.61" id="a4hq0Gs9sn"></path><path d="M147.9 12.6C147.9 17.1 151.22 20.76 155.3 20.76C159.39 20.76 162.71 17.1 162.71 12.6C162.71 8.1 159.39 4.44 155.3 4.44C151.22 4.44 147.9 8.1 147.9 12.6ZM155.3 21.59C150.81 21.59 147.16 17.56 147.16 12.6C147.16 7.65 150.81 3.62 155.3 3.62C159.8 3.62 163.45 7.65 163.45 12.6C163.45 17.56 159.8 21.59 155.3 21.59" id="d1D7fiByev"></path><path d="M155.47 9.08L155.65 9.08L155.65 11.64L155.47 11.64L155.47 9.08" id="a2tTNOmhR"></path><path d="M156.65 9.08L156.84 9.08L157.85 11.16L157.85 9.08L158.03 9.08L158.03 11.64L157.85 11.64L156.84 9.55L156.84 11.64L156.65 11.64L156.65 9.08" id="a1e1mLTcH3"></path><path d="M158.74 10.36C158.74 9.64 159.12 9.03 159.57 9.03C159.8 9.03 160.01 9.18 160.16 9.42C160.15 9.44 160.04 9.6 160.03 9.63C159.91 9.43 159.75 9.3 159.57 9.3C159.22 9.3 158.93 9.78 158.93 10.36C158.93 10.93 159.22 11.41 159.57 11.41C159.75 11.41 159.91 11.29 160.03 11.09C160.04 11.11 160.15 11.27 160.16 11.29C160.01 11.53 159.8 11.68 159.57 11.68C159.12 11.68 158.74 11.07 158.74 10.36" id="a58UUV1ytU"></path></defs><g><g><g><use xlink:href="#a10qjWBMdW" opacity="1" fill="#ffffff" fill-opacity="1"></use><g><use xlink:href="#a10qjWBMdW" opacity="1" fill-opacity="0" stroke="#000000" stroke-width="1" stroke-opacity="0"></use></g></g><g><use xlink:href="#c4uzVeCqCQ" opacity="1" fill="#ffffff" fill-opacity="1"></use><g><use xlink:href="#c4uzVeCqCQ" opacity="1" fill-opacity="0" stroke="#000000" stroke-width="1" stroke-opacity="0"></use></g></g><g><use xlink:href="#b6Jz8Im2m4" opacity="1" fill="#e11d25" fill-opacity="1"></use><g><use xlink:href="#b6Jz8Im2m4" opacity="1" fill-opacity="0" stroke="#000000" stroke-width="1" stroke-opacity="0"></use></g></g><g><use xlink:href="#bZod7oxNA" opacity="1" fill="#e11d25" fill-opacity="1"></use><g><use xlink:href="#bZod7oxNA" opacity="1" fill-opacity="0" stroke="#000000" stroke-width="1" stroke-opacity="0"></use></g></g><g><use xlink:href="#a4VeQeWYj" opacity="1" fill="#e11d25" fill-opacity="1"></use><g><use xlink:href="#a4VeQeWYj" opacity="1" fill-opacity="0" stroke="#000000" stroke-width="1" stroke-opacity="0"></use></g></g><g><use xlink:href="#bP6aIxsif" opacity="1" fill="#ffffff" fill-opacity="1"></use><g><use xlink:href="#bP6aIxsif" opacity="1" fill-opacity="0" stroke="#000000" stroke-width="1" stroke-opacity="0"></use></g></g><g><use xlink:href="#a4hq0Gs9sn" opacity="1" fill="#ffffff" fill-opacity="1"></use><g><use xlink:href="#a4hq0Gs9sn" opacity="1" fill-opacity="0" stroke="#000000" stroke-width="1" stroke-opacity="0"></use></g></g><g><use xlink:href="#d1D7fiByev" opacity="1" fill="#ffffff" fill-opacity="1"></use><g><use xlink:href="#d1D7fiByev" opacity="1" fill-opacity="0" stroke="#000000" stroke-width="1" stroke-opacity="0"></use></g></g><g><use xlink:href="#a2tTNOmhR" opacity="1" fill="#ffffff" fill-opacity="1"></use><g><use xlink:href="#a2tTNOmhR" opacity="1" fill-opacity="0" stroke="#000000" stroke-width="1" stroke-opacity="0"></use></g></g><g><use xlink:href="#a1e1mLTcH3" opacity="1" fill="#ffffff" fill-opacity="1"></use><g><use xlink:href="#a1e1mLTcH3" opacity="1" fill-opacity="0" stroke="#000000" stroke-width="1" stroke-opacity="0"></use></g></g><g><use xlink:href="#a58UUV1ytU" opacity="1" fill="#ffffff" fill-opacity="1"></use><g><use xlink:href="#a58UUV1ytU" opacity="1" fill-opacity="0" stroke="#000000" stroke-width="1" stroke-opacity="0"></use></g></g></g></g></svg>