<?xml version="1.0" encoding="UTF-8" standalone="no"?>
<!DOCTYPE svg PUBLIC "-//W3C//DTD SVG 1.1//EN" "http://www.w3.org/Graphics/SVG/1.1/DTD/svg11.dtd">
<svg version="1.1" xmlns="http://www.w3.org/2000/svg" xmlns:xlink="http://www.w3.org/1999/xlink" preserveAspectRatio="xMidYMid meet" viewBox="0 0 223 60" width="223" height="60"><defs><path d="M25.4 29.22L20.36 51.53L11.83 51.53L1.77 6.91L12.28 6.91L16.87 30.8L21.47 6.91L29.33 6.91L33.92 30.8L38.52 6.91L49.03 6.91L38.97 51.53L30.42 51.53L25.4 29.22" id="ahX3Zgw9M"></path><path d="M61.05 6.91L70.88 6.91L70.88 51.53L61.05 51.53L61.05 6.91" id="d1VtgALjz"></path><path d="M154.99 6.91C154.99 9.18 154.99 10.45 154.99 10.7C154.99 14.52 152.87 17.62 150.24 17.62C148.6 17.62 140.41 17.62 125.66 17.62L125.66 6.91L154.99 6.91" id="b1sdtphOG5"></path><path d="M154.99 27.12C154.99 29.45 154.99 30.75 154.99 31.01C154.99 32.89 153.95 34.42 152.66 34.42C150.86 34.42 141.86 34.42 125.66 34.42L125.66 23.71C141.86 23.71 150.86 23.71 152.66 23.71C153.95 23.71 154.99 25.23 154.99 27.12" id="c4qDjaFicH"></path><path d="M154.99 47.74L154.99 51.53L125.66 51.53L125.66 40.82C140.41 40.82 148.6 40.82 150.24 40.82C152.87 40.82 154.99 43.92 154.99 47.74" id="fwkPgoQ0x"></path><path d="M96.04 19.67L96.04 38.77C97.49 38.77 98.3 38.77 98.46 38.77C100.41 38.77 102.03 37.86 103.31 36.03C104.59 34.21 105.23 31.94 105.23 29.22C105.23 26.5 104.59 24.23 103.31 22.4C102.03 20.58 100.41 19.67 98.46 19.67C98.14 19.67 97.33 19.67 96.04 19.67ZM98.46 6.91C103.21 6.91 107.17 9.09 110.34 13.44C113.5 17.8 115.08 23.06 115.08 29.22C115.08 35.38 113.5 40.64 110.34 44.99C107.17 49.35 103.21 51.53 98.46 51.53C97.64 51.53 93.56 51.53 86.21 51.53L86.21 6.91L98.46 6.91" id="bHfFlHy0v"></path><path d="M180.78 19.51C180.47 19.51 178.94 19.51 176.18 19.51L176.18 25.89C178.94 25.89 180.47 25.89 180.78 25.89C181.53 25.89 182.12 25.6 182.55 25.03C182.98 24.46 183.19 23.69 183.19 22.7C183.19 21.71 182.98 20.94 182.56 20.37C182.14 19.8 181.55 19.51 180.78 19.51ZM166.35 6.76C175.41 6.76 180.43 6.76 181.44 6.76C184.89 6.76 187.68 8.27 189.83 11.31C191.97 14.35 193.04 18.14 193.04 22.68C193.04 24.47 192.87 26.14 192.54 27.69C192.21 29.25 191.8 30.51 191.33 31.46C190.86 32.41 190.4 33.23 189.93 33.92C189.47 34.6 189.06 35.07 188.7 35.32C188.67 35.35 188.52 35.49 188.23 35.75L194.13 51.37L183.85 51.37L179.26 38.62L176.18 38.62L176.18 51.37L166.35 51.37L166.35 6.76" id="ahc5zonKI"></path><path d="M199.5 11.86C199.5 17.79 203.98 22.63 209.48 22.63C214.98 22.63 219.46 17.79 219.46 11.86C219.46 5.92 214.98 1.09 209.48 1.09C203.98 1.09 199.5 5.92 199.5 11.86ZM209.48 23.71C203.43 23.71 198.5 18.39 198.5 11.86C198.5 5.32 203.43 0 209.48 0C215.54 0 220.46 5.32 220.46 11.86C220.46 18.39 215.54 23.71 209.48 23.71" id="czGrl69yD"></path><path d="M202.12 8.61L202.76 8.61L202.76 15.15L202.12 15.15L202.12 8.61" id="b3TGMP5yz"></path><path d="M205.46 8.61L206.1 8.61L209.62 13.93L209.62 8.61L210.26 8.61L210.26 15.15L209.62 15.15L206.1 9.83L206.1 15.15L205.46 15.15L205.46 8.61" id="a1ZreNArcs"></path><path d="M211.95 11.99C211.95 10.15 213.29 8.61 214.86 8.61C215.64 8.61 216.37 8.99 216.9 9.61C216.85 9.66 216.5 10.07 216.46 10.13C216.05 9.62 215.48 9.3 214.86 9.3C213.63 9.3 212.6 10.53 212.6 11.99C212.6 13.46 213.63 14.7 214.86 14.7C215.48 14.7 216.05 14.37 216.46 13.87C216.5 13.92 216.85 14.33 216.9 14.38C216.37 14.99 215.64 15.38 214.86 15.38C213.29 15.38 211.95 13.83 211.95 11.99" id="b8BxMFJ9K"></path></defs><g><g><g><use xlink:href="#ahX3Zgw9M" opacity="1" fill="#ffffff" fill-opacity="1"></use><g><use xlink:href="#ahX3Zgw9M" opacity="1" fill-opacity="0" stroke="#000000" stroke-width="1" stroke-opacity="0"></use></g></g><g><use xlink:href="#d1VtgALjz" opacity="1" fill="#ffffff" fill-opacity="1"></use><g><use xlink:href="#d1VtgALjz" opacity="1" fill-opacity="0" stroke="#000000" stroke-width="1" stroke-opacity="0"></use></g></g><g><use xlink:href="#b1sdtphOG5" opacity="1" fill="#e01f26" fill-opacity="1"></use><g><use xlink:href="#b1sdtphOG5" opacity="1" fill-opacity="0" stroke="#000000" stroke-width="1" stroke-opacity="0"></use></g></g><g><use xlink:href="#c4qDjaFicH" opacity="1" fill="#e01f26" fill-opacity="1"></use><g><use xlink:href="#c4qDjaFicH" opacity="1" fill-opacity="0" stroke="#000000" stroke-width="1" stroke-opacity="0"></use></g></g><g><use xlink:href="#fwkPgoQ0x" opacity="1" fill="#e01f26" fill-opacity="1"></use><g><use xlink:href="#fwkPgoQ0x" opacity="1" fill-opacity="0" stroke="#000000" stroke-width="1" stroke-opacity="0"></use></g></g><g><use xlink:href="#bHfFlHy0v" opacity="1" fill="#ffffff" fill-opacity="1"></use><g><use xlink:href="#bHfFlHy0v" opacity="1" fill-opacity="0" stroke="#000000" stroke-width="1" stroke-opacity="0"></use></g></g><g><use xlink:href="#ahc5zonKI" opacity="1" fill="#ffffff" fill-opacity="1"></use><g><use xlink:href="#ahc5zonKI" opacity="1" fill-opacity="0" stroke="#000000" stroke-width="1" stroke-opacity="0"></use></g></g><g><use xlink:href="#czGrl69yD" opacity="1" fill="#ffffff" fill-opacity="1"></use><g><use xlink:href="#czGrl69yD" opacity="1" fill-opacity="0" stroke="#000000" stroke-width="1" stroke-opacity="0"></use></g></g><g><use xlink:href="#b3TGMP5yz" opacity="1" fill="#ffffff" fill-opacity="1"></use><g><use xlink:href="#b3TGMP5yz" opacity="1" fill-opacity="0" stroke="#000000" stroke-width="1" stroke-opacity="0"></use></g></g><g><use xlink:href="#a1ZreNArcs" opacity="1" fill="#fcf9f9" fill-opacity="1"></use><g><use xlink:href="#a1ZreNArcs" opacity="1" fill-opacity="0" stroke="#000000" stroke-width="1" stroke-opacity="0"></use></g></g><g><use xlink:href="#b8BxMFJ9K" opacity="1" fill="#fcfbfb" fill-opacity="1"></use><g><use xlink:href="#b8BxMFJ9K" opacity="1" fill-opacity="0" stroke="#000000" stroke-width="1" stroke-opacity="0"></use></g></g></g></g></svg>