<?xml version="1.0" encoding="UTF-8" standalone="no"?>
<svg
   xmlns:dc="http://purl.org/dc/elements/1.1/"
   xmlns:cc="http://creativecommons.org/ns#"
   xmlns:rdf="http://www.w3.org/1999/02/22-rdf-syntax-ns#"
   xmlns:svg="http://www.w3.org/2000/svg"
   xmlns="http://www.w3.org/2000/svg"
   viewBox="0 0 1333.3333 1333.3333"
   height="1333.3333"
   width="1333.3333"
   xml:space="preserve"
   id="svg2"
   version="1.1"><metadata
     id="metadata8"><rdf:RDF><cc:Work
         rdf:about=""><dc:format>image/svg+xml</dc:format><dc:type
           rdf:resource="http://purl.org/dc/dcmitype/StillImage" /></cc:Work></rdf:RDF></metadata><defs
     id="defs6" /><g
     transform="matrix(1.3333333,0,0,-1.3333333,0,1333.3333)"
     id="g10"><g
       transform="scale(0.1)"
       id="g12"><path
         id="path14"
         style="fill:#2b2926;fill-opacity:1;fill-rule:nonzero;stroke:none"
         d="m 2388.06,4872.2 -165.01,-501.33 h -278.98 l -329.33,1002.66 h 344 l 150.34,-536.98 150.33,536.98 h 257.3 l 150.33,-536.98 150.34,536.98 h 344 L 2832.05,4370.87 h -279.68 l -164.31,501.33" /><path
         id="path16"
         style="fill:#2b2926;fill-opacity:1;fill-rule:nonzero;stroke:none"
         d="m 3554.75,5373.53 h 321.64 V 4370.87 h -321.64 v 1002.66" /><path
         id="path18"
         style="fill:#e11d25;fill-opacity:1;fill-rule:nonzero;stroke:none"
         d="m 6628.87,5373.53 v -85.13 c 0,-85.87 -69.61,-155.48 -155.48,-155.48 h -804.48 v 240.61 h 959.96" /><path
         id="path20"
         style="fill:#e11d25;fill-opacity:1;fill-rule:nonzero;stroke:none"
         d="m 6628.87,4919.46 v -87.57 c 0,-42.26 -34.26,-76.52 -76.52,-76.52 h -883.44 v 240.61 h 883.44 c 42.26,0 76.52,-34.26 76.52,-76.52" /><path
         id="path22"
         style="fill:#e11d25;fill-opacity:1;fill-rule:nonzero;stroke:none"
         d="m 6628.87,4456 v -85.13 h -959.96 v 240.61 h 804.48 c 85.87,0 155.48,-69.61 155.48,-155.48" /><path
         id="path24"
         style="fill:#2b2926;fill-opacity:1;fill-rule:nonzero;stroke:none"
         d="m 4699.77,5086.86 v -429.31 h 79.01 c 63.86,0 116.77,20.5 158.72,61.53 41.95,41.02 62.92,92.06 62.92,153.12 0,61.07 -20.97,112.11 -62.92,153.13 -41.95,41.02 -94.86,61.53 -158.72,61.53 z m 79.01,286.67 c 155.69,0 285.28,-48.94 388.76,-146.83 103.48,-97.89 155.22,-216.05 155.22,-354.5 0,-138.43 -51.74,-256.6 -155.22,-354.49 -103.48,-97.89 -233.07,-146.84 -388.76,-146.84 h -400.64 v 1002.66 h 400.64" /><path
         id="path26"
         style="fill:#2b2926;fill-opacity:1;fill-rule:nonzero;stroke:none"
         d="m 7556.52,5067.63 c -13.75,12.82 -33.22,19.23 -58.39,19.23 h -150.32 v -143.33 h 150.32 c 24.71,0 44.05,6.4 58.04,19.22 13.98,12.82 20.97,30.3 20.97,52.44 0,22.14 -6.87,39.62 -20.62,52.44 z m -530.35,305.9 h 493.64 c 112.8,0 204.28,-34.14 274.44,-102.43 70.15,-68.29 105.23,-153.48 105.23,-255.56 0,-40.08 -5.48,-77.61 -16.43,-112.57 -10.96,-34.96 -24.13,-63.16 -39.51,-84.6 -15.38,-21.45 -30.65,-39.86 -45.79,-55.24 -15.16,-15.38 -28.56,-25.87 -40.22,-31.47 l -15.38,-9.78 192.99,-351.01 h -336.32 l -150.33,286.68 h -100.68 v -286.68 h -321.64 v 1002.66" /><path
         id="path28"
         style="fill:#2b2926;fill-opacity:1;fill-rule:nonzero;stroke:none"
         d="m 8220.17,5614.04 c -82.71,0 -150,-67.3 -150,-150 0,-82.71 67.29,-150 150,-150 82.69,0 149.99,67.29 149.99,150 0,82.7 -67.3,150 -149.99,150 z m 0,-315.11 c -91.04,0 -165.11,74.07 -165.11,165.11 0,91.03 74.07,165.09 165.11,165.09 91.02,0 165.1,-74.06 165.1,-165.09 0,-91.04 -74.08,-165.11 -165.1,-165.11" /><path
         id="path30"
         style="fill:#2b2926;fill-opacity:1;fill-rule:nonzero;stroke:none"
         d="m 8119.47,5499.01 h 7.94 v -69.95 h -7.94 v 69.95" /><path
         id="path32"
         style="fill:#2b2926;fill-opacity:1;fill-rule:nonzero;stroke:none"
         d="m 8170.24,5499.01 h 7.94 l 43.37,-56.91 v 56.91 h 7.94 v -69.95 h -7.94 l -43.37,56.91 v -56.91 h -7.94 v 69.95" /><path
         id="path34"
         style="fill:#2b2926;fill-opacity:1;fill-rule:nonzero;stroke:none"
         d="m 8259.89,5464.09 c 0,19.65 16.48,36.14 35.83,36.14 9.67,0 18.63,-4.08 25.14,-10.69 l -5.39,-5.5 c -5.1,5.4 -12.12,8.86 -19.75,8.86 -15.07,0 -27.8,-13.23 -27.8,-28.81 0,-15.68 12.73,-28.92 27.8,-28.92 7.63,0 14.65,3.47 19.75,8.86 l 5.39,-5.49 c -6.51,-6.52 -15.47,-10.7 -25.14,-10.7 -19.35,0 -35.83,16.6 -35.83,36.25" /></g></g></svg>