<?xml version="1.0" encoding="UTF-8" standalone="no"?>
<!DOCTYPE svg PUBLIC "-//W3C//DTD SVG 1.1//EN" "http://www.w3.org/Graphics/SVG/1.1/DTD/svg11.dtd">
<svg version="1.1" xmlns="http://www.w3.org/2000/svg" xmlns:xlink="http://www.w3.org/1999/xlink" preserveAspectRatio="xMidYMid meet" viewBox="0 0 154 60" width="154" height="60"><defs><path d="M17.76 32.02L14.34 47.12L8.55 47.12L1.72 16.92L8.85 16.92L11.97 33.09L15.09 16.92L20.43 16.92L23.55 33.09L26.67 16.92L33.81 16.92L26.97 47.12L21.17 47.12L17.76 32.02" id="a16tf1IFJh"></path><path d="M41.97 16.92L48.64 16.92L48.64 47.12L41.97 47.12L41.97 16.92" id="akyGy1UL4"></path><path d="M105.75 16.92C105.75 18.46 105.75 19.31 105.75 19.49C105.75 22.07 104.31 24.17 102.53 24.17C101.41 24.17 95.85 24.17 85.83 24.17L85.83 16.92L105.75 16.92" id="dcekl25nD"></path><path d="M105.75 30.6C105.75 32.18 105.75 33.06 105.75 33.23C105.75 34.51 105.04 35.54 104.16 35.54C102.94 35.54 96.83 35.54 85.83 35.54L85.83 28.29C96.83 28.29 102.94 28.29 104.16 28.29C105.04 28.29 105.75 29.32 105.75 30.6" id="bEXaXUmMt"></path><path d="M105.75 44.56L105.75 47.12L85.83 47.12L85.83 39.87C95.85 39.87 101.41 39.87 102.53 39.87C104.31 39.87 105.75 41.97 105.75 44.56" id="kyg3C9dVn"></path><path d="M65.73 25.56L65.73 38.48C66.71 38.48 67.26 38.48 67.37 38.48C68.69 38.48 69.79 37.87 70.66 36.63C71.53 35.4 71.96 33.86 71.96 32.02C71.96 30.18 71.53 28.64 70.66 27.41C69.79 26.17 68.69 25.56 67.37 25.56C67.15 25.56 66.6 25.56 65.73 25.56ZM67.37 16.92C70.6 16.92 73.28 18.4 75.43 21.34C77.58 24.29 78.65 27.85 78.65 32.02C78.65 36.19 77.58 39.75 75.43 42.7C73.28 45.64 70.6 47.12 67.37 47.12C66.81 47.12 64.04 47.12 59.05 47.12L59.05 16.92L67.37 16.92" id="e2dDK6wLqz"></path><path d="M123.79 25.56C123.58 25.56 122.54 25.56 120.67 25.56L120.67 29.87C122.54 29.87 123.58 29.87 123.79 29.87C124.3 29.87 124.7 29.68 124.99 29.29C125.28 28.91 125.43 28.38 125.43 27.71C125.43 27.05 125.28 26.52 125 26.13C124.71 25.75 124.31 25.56 123.79 25.56ZM114 16.92C120.14 16.92 123.56 16.92 124.24 16.92C126.58 16.92 128.48 17.95 129.93 20.01C131.39 22.06 132.12 24.63 132.12 27.7C132.12 28.91 132 30.04 131.77 31.09C131.55 32.15 131.27 33 130.95 33.64C130.64 34.29 130.32 34.84 130 35.31C129.69 35.77 129.41 36.08 129.17 36.25C129.15 36.27 129.04 36.37 128.85 36.55L132.86 47.12L125.88 47.12L122.76 38.48L120.67 38.48L120.67 47.12L114 47.12L114 16.92" id="j38r186j5"></path><path d="M136.16 16.92C136.16 21.08 139.43 24.46 143.46 24.46C147.48 24.46 150.75 21.08 150.75 16.92C150.75 12.76 147.48 9.38 143.46 9.38C139.43 9.38 136.16 12.76 136.16 16.92ZM143.46 25.22C139.03 25.22 135.42 21.5 135.42 16.92C135.42 12.35 139.03 8.62 143.46 8.62C147.88 8.62 151.49 12.35 151.49 16.92C151.49 21.5 147.88 25.22 143.46 25.22" id="b1ayYcHnNl"></path><path d="M138.56 15.16L138.94 15.16L138.94 18.68L138.56 18.68L138.56 15.16" id="jvCWYQY9G"></path><path d="M141.03 15.16L141.41 15.16L143.52 18.02L143.52 15.16L143.91 15.16L143.91 18.68L143.52 18.68L141.41 15.82L141.41 18.68L141.03 18.68L141.03 15.16" id="a48xNjuj3d"></path><path d="M145.39 16.92C145.39 15.93 146.19 15.1 147.13 15.1C147.6 15.1 148.04 15.31 148.35 15.64C148.33 15.67 148.12 15.89 148.09 15.92C147.84 15.64 147.5 15.47 147.13 15.47C146.4 15.47 145.78 16.14 145.78 16.92C145.78 17.71 146.4 18.37 147.13 18.37C147.5 18.37 147.84 18.2 148.09 17.93C148.12 17.95 148.33 18.17 148.35 18.2C148.04 18.53 147.6 18.74 147.13 18.74C146.19 18.74 145.39 17.91 145.39 16.92" id="e1V3V7GlhW"></path></defs><g><g><g><use xlink:href="#a16tf1IFJh" opacity="1" fill="#2b2926" fill-opacity="1"></use><g><use xlink:href="#a16tf1IFJh" opacity="1" fill-opacity="0" stroke="#000000" stroke-width="1" stroke-opacity="0"></use></g></g><g><use xlink:href="#akyGy1UL4" opacity="1" fill="#2b2926" fill-opacity="1"></use><g><use xlink:href="#akyGy1UL4" opacity="1" fill-opacity="0" stroke="#000000" stroke-width="1" stroke-opacity="0"></use></g></g><g><use xlink:href="#dcekl25nD" opacity="1" fill="#e11d25" fill-opacity="1"></use><g><use xlink:href="#dcekl25nD" opacity="1" fill-opacity="0" stroke="#000000" stroke-width="1" stroke-opacity="0"></use></g></g><g><use xlink:href="#bEXaXUmMt" opacity="1" fill="#e11d25" fill-opacity="1"></use><g><use xlink:href="#bEXaXUmMt" opacity="1" fill-opacity="0" stroke="#000000" stroke-width="1" stroke-opacity="0"></use></g></g><g><use xlink:href="#kyg3C9dVn" opacity="1" fill="#e11d25" fill-opacity="1"></use><g><use xlink:href="#kyg3C9dVn" opacity="1" fill-opacity="0" stroke="#000000" stroke-width="1" stroke-opacity="0"></use></g></g><g><use xlink:href="#e2dDK6wLqz" opacity="1" fill="#2b2926" fill-opacity="1"></use><g><use xlink:href="#e2dDK6wLqz" opacity="1" fill-opacity="0" stroke="#000000" stroke-width="1" stroke-opacity="0"></use></g></g><g><use xlink:href="#j38r186j5" opacity="1" fill="#2b2926" fill-opacity="1"></use><g><use xlink:href="#j38r186j5" opacity="1" fill-opacity="0" stroke="#000000" stroke-width="1" stroke-opacity="0"></use></g></g><g><use xlink:href="#b1ayYcHnNl" opacity="1" fill="#2b2926" fill-opacity="1"></use><g><use xlink:href="#b1ayYcHnNl" opacity="1" fill-opacity="0" stroke="#000000" stroke-width="1" stroke-opacity="0"></use></g></g><g><use xlink:href="#jvCWYQY9G" opacity="1" fill="#2b2926" fill-opacity="1"></use><g><use xlink:href="#jvCWYQY9G" opacity="1" fill-opacity="0" stroke="#000000" stroke-width="1" stroke-opacity="0"></use></g></g><g><use xlink:href="#a48xNjuj3d" opacity="1" fill="#2b2926" fill-opacity="1"></use><g><use xlink:href="#a48xNjuj3d" opacity="1" fill-opacity="0" stroke="#000000" stroke-width="1" stroke-opacity="0"></use></g></g><g><use xlink:href="#e1V3V7GlhW" opacity="1" fill="#2b2926" fill-opacity="1"></use><g><use xlink:href="#e1V3V7GlhW" opacity="1" fill-opacity="0" stroke="#000000" stroke-width="1" stroke-opacity="0"></use></g></g></g></g></svg>