<?xml version="1.0" encoding="UTF-8" standalone="no"?>
<svg
   xmlns:dc="http://purl.org/dc/elements/1.1/"
   xmlns:cc="http://creativecommons.org/ns#"
   xmlns:rdf="http://www.w3.org/1999/02/22-rdf-syntax-ns#"
   xmlns:svg="http://www.w3.org/2000/svg"
   xmlns="http://www.w3.org/2000/svg"
   viewBox="0 0 1333.3333 1333.3333"
   height="1333.3333"
   width="1333.3333"
   xml:space="preserve"
   id="svg2"
   version="1.1"><metadata
     id="metadata8"><rdf:RDF><cc:Work
         rdf:about=""><dc:format>image/svg+xml</dc:format><dc:type
           rdf:resource="http://purl.org/dc/dcmitype/StillImage" /></cc:Work></rdf:RDF></metadata><defs
     id="defs6" /><g
     transform="matrix(1.3333333,0,0,-1.3333333,0,1333.3333)"
     id="g10"><g
       transform="scale(0.1)"
       id="g12"><path
         id="path14"
         style="fill:#231f20;fill-opacity:1;fill-rule:nonzero;stroke:none"
         d="m 2391.96,4872.39 -164.77,-500.57 h -278.56 l -328.84,1001.16 h 343.49 l 150.11,-536.19 150.11,536.19 h 256.91 l 150.11,-536.19 150.11,536.19 h 343.49 L 2835.29,4371.82 h -279.26 l -164.07,500.57" /><path
         id="path16"
         style="fill:#231f20;fill-opacity:1;fill-rule:nonzero;stroke:none"
         d="m 3556.91,5372.98 h 321.15 V 4371.82 h -321.15 v 1001.16" /><path
         id="path18"
         style="fill:#231f20;fill-opacity:1;fill-rule:nonzero;stroke:none"
         d="m 6626.44,5372.98 v -85.01 c 0,-85.74 -69.51,-155.25 -155.25,-155.25 h -803.28 v 240.26 h 958.53" /><path
         id="path20"
         style="fill:#231f20;fill-opacity:1;fill-rule:nonzero;stroke:none"
         d="m 6626.44,4919.58 v -87.44 c 0,-42.2 -34.21,-76.41 -76.41,-76.41 h -882.12 v 240.26 h 882.12 c 42.2,0 76.41,-34.21 76.41,-76.41" /><path
         id="path22"
         style="fill:#231f20;fill-opacity:1;fill-rule:nonzero;stroke:none"
         d="m 6626.44,4456.82 v -85.01 h -958.53 v 240.25 h 803.28 c 85.74,0 155.25,-69.5 155.25,-155.24" /><path
         id="path24"
         style="fill:#231f20;fill-opacity:1;fill-rule:nonzero;stroke:none"
         d="m 4700.22,5086.73 v -428.67 h 78.88 c 63.77,0 116.61,20.47 158.49,61.44 41.9,40.96 62.83,91.93 62.83,152.89 0,60.98 -20.93,111.95 -62.83,152.9 -41.88,40.96 -94.72,61.44 -158.49,61.44 z m 78.88,286.25 c 155.46,0 284.86,-48.87 388.19,-146.61 103.33,-97.75 154.99,-215.74 154.99,-353.98 0,-138.23 -51.66,-256.22 -154.99,-353.96 -103.33,-97.75 -232.73,-146.61 -388.19,-146.61 h -400.03 v 1001.16 h 400.03" /><path
         id="path26"
         style="fill:#231f20;fill-opacity:1;fill-rule:nonzero;stroke:none"
         d="m 7552.7,5067.53 c -13.73,12.8 -33.17,19.2 -58.29,19.2 H 7344.3 v -143.12 h 150.11 c 24.67,0 43.98,6.4 57.94,19.2 13.96,12.79 20.94,30.25 20.94,52.36 0,22.1 -6.86,39.57 -20.59,52.36 z m -529.55,305.45 h 492.9 c 112.63,0 203.97,-34.1 274.03,-102.29 70.04,-68.18 105.07,-153.24 105.07,-255.17 0,-40.03 -5.47,-77.49 -16.41,-112.41 -10.93,-34.9 -24.09,-63.06 -39.44,-84.48 -15.36,-21.4 -30.61,-39.78 -45.73,-55.15 -15.13,-15.36 -28.52,-25.83 -40.15,-31.42 l -15.36,-9.77 192.7,-350.47 h -335.83 l -150.09,286.24 H 7344.3 v -286.24 h -321.15 v 1001.16" /><path
         id="path28"
         style="fill:#231f20;fill-opacity:1;fill-rule:nonzero;stroke:none"
         d="m 8215.35,5613.11 c -82.57,0 -149.77,-67.19 -149.77,-149.77 0,-82.58 67.2,-149.78 149.77,-149.78 82.59,0 149.78,67.2 149.78,149.78 0,82.58 -67.19,149.77 -149.78,149.77 z m 0,-314.62 c -90.89,0 -164.84,73.95 -164.84,164.85 0,90.9 73.95,164.85 164.84,164.85 90.9,0 164.86,-73.95 164.86,-164.85 0,-90.9 -73.96,-164.85 -164.86,-164.85" /><path
         id="path30"
         style="fill:#231f20;fill-opacity:1;fill-rule:nonzero;stroke:none"
         d="m 8114.81,5498.26 h 7.93 v -69.83 h -7.93 v 69.83" /><path
         id="path32"
         style="fill:#231f20;fill-opacity:1;fill-rule:nonzero;stroke:none"
         d="m 8165.5,5498.26 h 7.93 l 43.31,-56.83 v 56.83 h 7.93 v -69.83 h -7.93 l -43.31,56.81 v -56.81 h -7.93 v 69.83" /><path
         id="path34"
         style="fill:#231f20;fill-opacity:1;fill-rule:nonzero;stroke:none"
         d="m 8255.01,5463.4 c 0,19.62 16.48,36.08 35.78,36.08 9.66,0 18.61,-4.07 25.12,-10.67 l -5.39,-5.49 c -5.09,5.39 -12.1,8.84 -19.73,8.84 -15.03,0 -27.74,-13.21 -27.74,-28.76 0,-15.66 12.71,-28.88 27.74,-28.88 7.63,0 14.64,3.46 19.73,8.85 l 5.39,-5.49 c -6.51,-6.5 -15.46,-10.67 -25.12,-10.67 -19.3,0 -35.78,16.56 -35.78,36.19" /></g></g></svg>