<svg height="80pt" viewBox="0 -65 512 512" width="80pt" xmlns="http://www.w3.org/2000/svg"><path d="m504.5 18.105469-248.5 248.5-248.5-248.5v104.960937l248.5 248.5 248.5-248.5zm0 0" fill="#df1f26"/><path d="m286 266.605469 218.5-218.5v-30l-233.5 233.5zm0 0" fill="#0d0101"/><path d="m37.5 123.066406v-74.960937l-30-30v104.960937l248.5 248.5 15-15zm0 0" fill="#0d0101"/><path d="m256 382.171875-256-256v-126.171875l142.597656 142.59375-10.609375 10.609375-116.988281-116.988281v83.746094l241 241 170.003906-170.007813 10.605469 10.609375zm0 0"/><path d="m256 277.214844-109.867188-109.871094 10.605469-10.605469 99.261719 99.261719 256-256v126.171875l-61.246094 61.246094-10.609375-10.605469 56.855469-56.851562v-83.746094zm0 0"/><path d="m276.246094 319.191406h-15v-15h15zm-25 0h-15v-15h15zm0 0" fill="#fff"/></svg>