<?xml version="1.0" encoding="UTF-8" standalone="no"?>
<!DOCTYPE svg PUBLIC "-//W3C//DTD SVG 1.1//EN" "http://www.w3.org/Graphics/SVG/1.1/DTD/svg11.dtd">
<svg version="1.1" xmlns="http://www.w3.org/2000/svg" xmlns:xlink="http://www.w3.org/1999/xlink" preserveAspectRatio="xMidYMid meet" viewBox="0 0 150 60" width="150" height="60"><defs><path d="M24.65 30.88L21.25 44.77L15.5 44.77L8.71 16.99L15.8 16.99L18.9 31.87L22 16.99L27.3 16.99L30.4 31.87L33.5 16.99L40.59 16.99L33.8 44.77L28.04 44.77L24.65 30.88" id="h5ZOGvICq"></path><path d="M48.7 16.99L55.33 16.99L55.33 44.77L48.7 44.77L48.7 16.99" id="baSs4XfPu"></path><path d="M112.08 16.99C112.08 18.41 112.08 19.19 112.08 19.35C112.08 21.73 110.64 23.66 108.87 23.66C107.76 23.66 102.24 23.66 92.29 23.66L92.29 16.99L112.08 16.99" id="c17a7hr1Cb"></path><path d="M112.08 29.57C112.08 31.03 112.08 31.83 112.08 32C112.08 33.17 111.37 34.12 110.5 34.12C109.28 34.12 103.21 34.12 92.29 34.12L92.29 27.45C103.21 27.45 109.28 27.45 110.5 27.45C111.37 27.45 112.08 28.4 112.08 29.57" id="a26IYnt3nG"></path><path d="M112.08 42.41L112.08 44.77L92.29 44.77L92.29 38.1C102.24 38.1 107.76 38.1 108.87 38.1C110.64 38.1 112.08 40.03 112.08 42.41" id="dvSnw4WxT"></path><path d="M72.31 24.93L72.31 36.83C73.28 36.83 73.83 36.83 73.94 36.83C75.25 36.83 76.34 36.26 77.21 35.12C78.07 33.99 78.51 32.57 78.51 30.88C78.51 29.19 78.07 27.77 77.21 26.64C76.34 25.5 75.25 24.93 73.94 24.93C73.72 24.93 73.18 24.93 72.31 24.93ZM73.94 16.99C77.15 16.99 79.82 18.35 81.95 21.06C84.08 23.77 85.15 27.04 85.15 30.88C85.15 34.71 84.08 37.99 81.95 40.7C79.82 43.41 77.15 44.77 73.94 44.77C73.39 44.77 70.63 44.77 65.68 44.77L65.68 16.99L73.94 16.99" id="b3Vu1qxrQ"></path><path d="M130 24.93C129.79 24.93 128.76 24.93 126.9 24.93L126.9 28.9C128.76 28.9 129.79 28.9 130 28.9C130.5 28.9 130.9 28.73 131.19 28.37C131.48 28.02 131.62 27.53 131.62 26.92C131.62 26.3 131.48 25.82 131.2 25.47C130.92 25.11 130.51 24.93 130 24.93ZM120.27 16.99C126.37 16.99 129.76 16.99 130.44 16.99C132.77 16.99 134.65 17.94 136.1 19.83C137.55 21.72 138.27 24.08 138.27 26.91C138.27 28.02 138.16 29.06 137.93 30.03C137.7 31 137.43 31.78 137.12 32.37C136.8 32.97 136.48 33.48 136.17 33.9C135.86 34.33 135.58 34.62 135.34 34.77C135.32 34.79 135.22 34.88 135.03 35.04L139 44.77L132.07 44.77L128.97 36.83L126.9 36.83L126.9 44.77L120.27 44.77L120.27 16.99" id="cisowliw2"></path><path d="M141.79 14.48C141.79 16.77 143.18 18.64 144.88 18.64C146.58 18.64 147.97 16.77 147.97 14.48C147.97 12.19 146.58 10.33 144.88 10.33C143.18 10.33 141.79 12.19 141.79 14.48ZM144.88 19.06C143 19.06 141.48 17.01 141.48 14.48C141.48 11.96 143 9.91 144.88 9.91C146.76 9.91 148.28 11.96 148.28 14.48C148.28 17.01 146.76 19.06 144.88 19.06" id="b3iyZ5r1en"></path><path d="M142.8 13.51L142.97 13.51L142.97 15.45L142.8 15.45L142.8 13.51" id="a2MukBbZa2"></path><path d="M143.85 13.51L144.01 13.51L144.91 15.09L144.91 13.51L145.07 13.51L145.07 15.45L144.91 15.45L144.01 13.88L144.01 15.45L143.85 15.45L143.85 13.51" id="a7cpOLjXFG"></path><path d="M145.7 14.48C145.7 13.94 146.04 13.48 146.44 13.48C146.64 13.48 146.82 13.59 146.96 13.78C146.94 13.79 146.86 13.91 146.84 13.93C146.74 13.78 146.6 13.68 146.44 13.68C146.13 13.68 145.86 14.05 145.86 14.48C145.86 14.92 146.13 15.28 146.44 15.28C146.6 15.28 146.74 15.19 146.84 15.04C146.86 15.05 146.94 15.17 146.96 15.19C146.82 15.37 146.64 15.49 146.44 15.49C146.04 15.49 145.7 15.03 145.7 14.48" id="b2eOx4XDe0"></path></defs><g><g><g><use xlink:href="#h5ZOGvICq" opacity="1" fill="#2b2926" fill-opacity="1"></use><g><use xlink:href="#h5ZOGvICq" opacity="1" fill-opacity="0" stroke="#000000" stroke-width="1" stroke-opacity="0"></use></g></g><g><use xlink:href="#baSs4XfPu" opacity="1" fill="#2b2926" fill-opacity="1"></use><g><use xlink:href="#baSs4XfPu" opacity="1" fill-opacity="0" stroke="#000000" stroke-width="1" stroke-opacity="0"></use></g></g><g><use xlink:href="#c17a7hr1Cb" opacity="1" fill="#e11d25" fill-opacity="1"></use><g><use xlink:href="#c17a7hr1Cb" opacity="1" fill-opacity="0" stroke="#000000" stroke-width="1" stroke-opacity="0"></use></g></g><g><use xlink:href="#a26IYnt3nG" opacity="1" fill="#e11d25" fill-opacity="1"></use><g><use xlink:href="#a26IYnt3nG" opacity="1" fill-opacity="0" stroke="#000000" stroke-width="1" stroke-opacity="0"></use></g></g><g><use xlink:href="#dvSnw4WxT" opacity="1" fill="#e11d25" fill-opacity="1"></use><g><use xlink:href="#dvSnw4WxT" opacity="1" fill-opacity="0" stroke="#000000" stroke-width="1" stroke-opacity="0"></use></g></g><g><use xlink:href="#b3Vu1qxrQ" opacity="1" fill="#2b2926" fill-opacity="1"></use><g><use xlink:href="#b3Vu1qxrQ" opacity="1" fill-opacity="0" stroke="#000000" stroke-width="1" stroke-opacity="0"></use></g></g><g><use xlink:href="#cisowliw2" opacity="1" fill="#2b2926" fill-opacity="1"></use><g><use xlink:href="#cisowliw2" opacity="1" fill-opacity="0" stroke="#000000" stroke-width="1" stroke-opacity="0"></use></g></g><g><use xlink:href="#b3iyZ5r1en" opacity="1" fill="#2b2926" fill-opacity="1"></use><g><use xlink:href="#b3iyZ5r1en" opacity="1" fill-opacity="0" stroke="#000000" stroke-width="1" stroke-opacity="0"></use></g></g><g><use xlink:href="#a2MukBbZa2" opacity="1" fill="#2b2926" fill-opacity="1"></use><g><use xlink:href="#a2MukBbZa2" opacity="1" fill-opacity="0" stroke="#000000" stroke-width="1" stroke-opacity="0"></use></g></g><g><use xlink:href="#a7cpOLjXFG" opacity="1" fill="#2b2926" fill-opacity="1"></use><g><use xlink:href="#a7cpOLjXFG" opacity="1" fill-opacity="0" stroke="#000000" stroke-width="1" stroke-opacity="0"></use></g></g><g><use xlink:href="#b2eOx4XDe0" opacity="1" fill="#2b2926" fill-opacity="1"></use><g><use xlink:href="#b2eOx4XDe0" opacity="1" fill-opacity="0" stroke="#000000" stroke-width="1" stroke-opacity="0"></use></g></g></g></g></svg>