<svg id="Layer_1" enable-background="new 0 0 511.999 511.999" height="512" viewBox="0 0 511.999 511.999" width="512" xmlns="http://www.w3.org/2000/svg"><g><g><path d="m80.083 101.319 18.398 29.964 34.271 8.277c4.252 1.021 6.889 5.329 5.84 9.581-.284 1.219-.851 2.354-1.673 3.317l-22.848 26.816 2.721 35.179c.34 4.394-2.948 8.221-7.342 8.561-1.474.085-2.892-.199-4.11-.822l-32.117-13.238-32.6 13.466c-4.082 1.644-8.702-.284-10.375-4.337-.481-1.134-.68-2.381-.595-3.628l2.721-35.179-22.847-26.817c-2.863-3.346-2.467-8.363.879-11.226 1.077-.907 2.296-1.502 3.6-1.757l33.961-8.192 18.481-30.078c2.297-3.741 7.201-4.904 10.943-2.607 1.162.708 2.041 1.643 2.692 2.72zm351.964.057-18.426 29.964-34.244 8.277c-4.28 1.021-6.888 5.329-5.868 9.581.313 1.219.879 2.354 1.701 3.317l22.849 26.816-2.75 35.208c-.312 4.365 2.977 8.192 7.37 8.532 1.474.113 2.863-.199 4.11-.822l32.117-13.238 32.601 13.465c4.053 1.672 8.701-.284 10.375-4.337.453-1.134.68-2.381.596-3.6l-2.75-35.208 22.875-26.816c2.836-3.346 2.467-8.363-.879-11.226-1.076-.907-2.324-1.474-3.6-1.757l-33.961-8.192-18.482-30.049c-2.295-3.77-7.2-4.932-10.971-2.636-1.133.708-2.04 1.644-2.663 2.721z" fill="#ebb044"/><path d="m115.32 195.433 1.474 19.021c.34 4.394-2.948 8.221-7.342 8.561-1.474.085-2.892-.199-4.11-.822l-32.117-13.238-32.602 13.465c-4.082 1.644-8.702-.284-10.375-4.337-.481-1.134-.68-2.381-.595-3.628l1.474-19.05c2.098 2.948 6.01 4.167 9.496 2.75l27.525-11.396c3.402-1.389 6.804-1.389 10.149 0l27.043 11.169c1.219.624 2.637.907 4.11.794 2.439-.171 4.537-1.446 5.87-3.289zm281.463.057-1.475 19.05c-.312 4.365 2.977 8.192 7.37 8.532 1.474.113 2.863-.199 4.11-.822l32.117-13.238 32.601 13.465c4.053 1.672 8.701-.284 10.375-4.337.453-1.134.68-2.381.596-3.6l-1.475-19.05c-2.098 2.92-6.01 4.139-9.496 2.722l-26.618-10.999c-3.884-1.616-7.995-1.644-11.991 0l-26.108 10.773c-1.247.623-2.637.907-4.11.822-2.466-.2-4.564-1.475-5.896-3.318z" fill="#ff9838"/><path d="m161.668 87.457 23.67 38.553 44.08 10.659c5.5 1.304 8.873 6.832 7.54 12.331-.368 1.559-1.105 3.005-2.154 4.252l-29.424 34.499 3.515 45.3c.426 5.641-3.799 10.545-9.439 10.97-1.9.142-3.713-.255-5.302-1.021l-41.302-17.065-41.982 17.32c-5.217 2.154-11.197-.34-13.323-5.556-.624-1.474-.879-3.09-.766-4.649l3.515-45.3-29.426-34.498c-3.657-4.309-3.146-10.772 1.135-14.429 1.389-1.19 2.976-1.928 4.648-2.268l43.683-10.546 23.756-38.695c2.978-4.819 9.299-6.321 14.117-3.345 1.475.881 2.637 2.099 3.459 3.488zm188.795.057-23.699 38.581-44.08 10.63c-5.472 1.332-8.845 6.832-7.512 12.331.368 1.559 1.105 3.034 2.154 4.253l29.396 34.498-3.515 45.3c-.425 5.641 3.827 10.545 9.468 10.97 1.899.142 3.714-.227 5.302-1.02l41.302-17.065 41.955 17.32c5.243 2.154 11.196-.34 13.351-5.556.596-1.474.879-3.061.766-4.649l-3.515-45.3 29.397-34.498c3.685-4.309 3.174-10.744-1.106-14.429-1.39-1.191-2.977-1.928-4.649-2.268l-43.683-10.517-23.785-38.695c-2.949-4.847-9.27-6.35-14.089-3.373-1.474.908-2.636 2.098-3.458 3.487z" fill="#ffd064"/><path d="m207.478 214.767 1.417 18.284c.426 5.641-3.799 10.545-9.439 10.97-1.9.142-3.713-.255-5.302-1.021l-41.302-17.065-41.982 17.32c-5.217 2.154-11.197-.34-13.323-5.556-.624-1.474-.879-3.09-.766-4.649l1.417-18.313c2.552 4.309 7.909 6.208 12.672 4.252l36.767-15.194c3.515-1.417 7.087-1.36 10.403 0l36.114 14.939c1.589.766 3.402 1.162 5.302 1.02 3.457-.253 6.377-2.21 8.022-4.987zm97.147.085-1.418 18.256c-.425 5.641 3.827 10.545 9.468 10.97 1.899.142 3.714-.227 5.302-1.02l41.302-17.065 41.955 17.32c5.243 2.154 11.196-.34 13.351-5.556.596-1.474.879-3.061.766-4.649l-1.417-18.313c-2.552 4.309-7.938 6.208-12.699 4.252l-36.909-15.251c-3.203-1.304-6.719-1.389-10.092 0l-36.256 14.996c-1.588.765-3.402 1.162-5.302 1.02-3.459-.255-6.379-2.211-8.051-4.96z" fill="#ffc250"/><g clip-rule="evenodd" fill-rule="evenodd"><path d="m371.554 386.78c42.095-16.414 84.389-26.902 126.74-31.495 3.402-.34 4.99-3.089 3.629-6.207l-17.264-39.347c-1.502-3.345-1.701-6.831-.027-10.63l17.264-39.318c1.502-3.373-.057-5.386-3.686-4.989-42.211 4.592-84.448 15.081-126.656 31.465zm-231.232 0c-42.124-16.414-84.419-26.902-126.77-31.495-3.402-.34-4.989-3.089-3.601-6.207l17.265-39.347c1.474-3.345 1.672-6.831 0-10.63l-17.265-39.319c-1.474-3.373.085-5.386 3.686-4.989 42.238 4.592 84.447 15.081 126.685 31.465z" fill="#d82e3d"/><path d="m371.554 386.78c42.095-16.414 84.389-26.902 126.74-31.495 3.402-.34 4.99-3.089 3.629-6.207l-7.738-17.604c-40.99 4.819-81.896 15.165-122.631 31.04zm-231.232 0c-42.124-16.414-84.419-26.902-126.77-31.495-3.402-.34-4.989-3.089-3.601-6.207l7.711-17.604c40.99 4.819 81.896 15.165 122.659 31.04v24.266z" fill="#c32430"/><path d="m371.554 334.223v-47.964c20.155 5.131 40.31 10.971 60.436 28.49-20.098 7.852-40.252 14.343-60.436 19.474z" fill="#a71f29"/><path d="m140.322 334.223v-47.964c-20.155 5.131-40.31 10.971-60.465 28.49 20.127 7.852 40.281 14.343 60.465 19.474z" fill="#a71f29"/><path d="m79.857 314.749c116.707 45.498 234.774 45.611 352.134 0v94.681c.085 4.762-3.544 7.228-5.698 8.05-113.561 42.691-227.148 42.578-340.709-.028-2.382-.879-5.528-3.033-5.727-7.994z" fill="#dd636e"/><path d="m431.99 385.391v24.039c.085 4.762-3.544 7.228-5.698 8.05-113.561 42.691-227.148 42.578-340.709-.028-2.382-.879-5.528-3.033-5.727-7.994v-24.266c.198 4.96 3.345 7.115 5.727 7.994 113.561 42.607 227.148 42.691 340.709 0 2.126-.766 5.642-3.175 5.698-7.795z" fill="#da4a54"/></g><path d="m267.375 69.088 30.786 50.09 57.233 13.805c7.144 1.729 11.51 8.902 9.78 16.045-.482 2.013-1.446 3.912-2.807 5.499l-38.184 44.817 4.564 58.821c.539 7.314-4.96 13.72-12.274 14.259-2.467.17-4.819-.311-6.889-1.332l-53.661-22.168-54.484 22.508c-6.775 2.779-14.543-.454-17.32-7.228-.794-1.899-1.163-3.997-.992-6.038l4.563-58.821-38.184-44.817c-4.792-5.584-4.14-13.947 1.445-18.738 1.786-1.531 3.855-2.495 6.038-2.92l56.724-13.692 30.871-50.26c3.855-6.265 12.047-8.221 18.312-4.366 1.928 1.163 3.43 2.75 4.479 4.536z" fill="#fff0af"/><path d="m327.388 240.79 1.36 17.377c.539 7.314-4.96 13.72-12.274 14.259-2.467.17-4.819-.311-6.889-1.332l-53.661-22.168-54.484 22.508c-6.775 2.779-14.543-.454-17.32-7.228-.794-1.899-1.163-3.997-.992-6.038l1.332-17.434c3.062 6.236 10.461 9.099 16.98 6.435l48.39-19.985c4.337-1.786 8.306-1.615 12.188 0l47.567 19.645c2.069 1.021 4.422 1.502 6.889 1.332 4.848-.369 8.901-3.289 10.914-7.371z" fill="#ffe07d"/></g><path d="m237.384 248.5c3.826-1.559 8.193.255 9.752 4.082 1.588 3.799-.255 8.192-4.055 9.752l-38.807 16.016c-5.301 2.183-11 2.013-15.875-.028-8.221-3.43-13.408-11.906-12.756-20.722l1.077-13.72-23.869-9.865-39.12 16.158c-4.535 1.871-9.383 1.729-13.55-.028-7.002-2.92-11.452-10.148-10.886-17.661l.681-8.533-16.753-6.916-29.793 12.302c-3.94 1.616-8.136 1.475-11.764-.028-6.123-2.551-9.979-8.844-9.497-15.392l2.495-32.146-20.807-24.465c-2.777-3.232-3.996-7.285-3.684-11.197.566-7.427 5.669-12.332 12.642-14.032l30.36-7.314 16.866-27.469c2.24-3.628 5.755-6.038 9.609-6.945 6.55-1.56 13.353 1.332 16.811 7.059l15.592 25.342 13.493-3.26 22.168-36.086c2.579-4.167 6.604-6.917 11.027-7.966 7.54-1.814 15.364 1.531 19.304 8.107l20.864 33.932 20.014-4.848 29.283-47.624c3.004-4.904 7.711-8.107 12.898-9.354 8.872-2.126 18.284 1.899 22.791 9.752l29.028 47.227 20.297 4.905 20.864-33.933c3.939-6.577 11.764-9.922 19.304-8.107 4.423 1.049 8.448 3.799 11.027 7.966l22.168 36.086 13.493 3.26 15.564-25.343c3.458-5.726 10.261-8.618 16.838-7.059 3.855.907 7.371 3.316 9.581 6.945l16.897 27.469 30.359 7.314c6.717 1.644 12.076 7.002 12.643 14.032.283 3.912-.908 7.965-3.686 11.197l-20.836 24.464 2.496 32.146c.51 6.548-3.375 12.841-9.469 15.393-3.629 1.531-7.852 1.644-11.793.028l-29.765-12.303-16.753 6.916.652 8.533c.566 7.512-3.855 14.74-10.857 17.661-4.167 1.757-9.015 1.899-13.55.028l-39.12-16.158-24.124 9.978 1.049 13.55c.426 5.727-1.502 11.084-4.989 15.137-6.179 7.172-16.356 9.213-24.775 5.131l-37.645-15.534c-3.828-1.56-5.643-5.953-4.083-9.752 1.587-3.827 5.953-5.641 9.78-4.082l37.673 15.563c4.139 1.531 9.583.822 9.101-5.33l-4.564-58.821c-.142-1.899.453-3.855 1.787-5.442l38.212-44.79c2.721-3.203 1.19-8.391-3.061-9.411-18.993-4.592-37.958-9.185-56.95-13.749-1.984-.397-3.799-1.587-4.934-3.459l-30.587-49.807c-2.579-3.855-7.625-4.592-10.204-.397l-30.87 50.232c-.993 1.644-2.609 2.863-4.622 3.345-18.708 4.536-37.446 9.043-56.156 13.55-4.167 1.36-8.191 4.932-4.139 9.694l37.929 44.506c1.419 1.474 2.212 3.515 2.042 5.726l-4.564 58.821c-.311 4.168 3.969 7.456 8.023 5.783zm18.397 107.919c-57.941 0-114.27-10.942-168.413-30.842v18.029c16.556 6.265 33.196 11.623 49.863 16.073 18.229 4.848 36.484 8.561 54.796 11.169 4.083.595 6.918 4.394 6.351 8.476-.595 4.082-4.366 6.945-8.477 6.35-18.822-2.693-37.673-6.52-56.468-11.538-15.365-4.083-30.729-8.93-46.066-14.571v18.001c11.142 4.252 22.281 8.051 33.394 11.396 12.559 3.827 25.315 7.115 38.27 9.922 4.025.878 6.604 4.875 5.726 8.929-.878 4.025-4.847 6.605-8.9 5.726-12.983-2.806-26.108-6.236-39.432-10.262-9.724-2.948-19.418-6.207-29.057-9.751v16.612c56.213 21.204 112.398 31.834 168.556 31.834 56.156.028 112.341-10.574 168.583-31.806v-16.64c-9.667 3.544-19.362 6.804-29.085 9.751-13.295 4.025-26.448 7.456-39.432 10.262-4.025.879-8.022-1.701-8.9-5.726-.879-4.054 1.7-8.051 5.754-8.929 12.926-2.807 25.683-6.095 38.24-9.922 11.113-3.345 22.253-7.144 33.423-11.396v-18.001c-15.365 5.642-30.7 10.489-46.065 14.571-18.823 5.018-37.645 8.844-56.496 11.538-4.082.595-7.882-2.268-8.448-6.35-.596-4.082 2.239-7.881 6.351-8.476 18.283-2.608 36.539-6.321 54.767-11.169 16.669-4.451 33.309-9.808 49.893-16.073v-18.029c-54.345 19.9-110.559 30.842-168.728 30.842zm108.26-28.092v-42.068c0-3.401 2.268-6.293 5.387-7.2 22.252-8.589 44.505-15.591 66.786-20.977 22.365-5.414 44.76-9.185 67.184-11.339 1.303-.17 2.664 0 3.969.566 3.77 1.645 5.498 6.038 3.854 9.837l-20.75 47.255 20.75 47.284c.313.708.512 1.474.596 2.296.397 4.082-2.637 7.739-6.746 8.136-2.664.255-5.84.595-9.467 1.02-3.488.397-6.662.794-9.498 1.191-4.082.538-7.852-2.325-8.391-6.435-.566-4.082 2.324-7.852 6.406-8.391 3.402-.482 6.492-.879 9.299-1.191l-17.973-40.905c-.85-1.984-.793-4.139 0-5.981l16.867-38.411c-17.52 2.154-35.066 5.358-52.585 9.609-14.712 3.544-29.396 7.824-44.108 12.813 13.663 4.763 27.384 11.594 41.273 23.67 1.616 1.389 2.608 3.572 2.608 5.698v42.975c3.544-.822 7.088-1.616 10.631-2.381 4.054-.822 7.993 1.757 8.843 5.812.852 4.053-1.758 7.994-5.811 8.844-2.976.624-6.094 1.333-9.297 2.069-1.39.34-2.863.681-4.366 1.049v42.125c0 3.401-2.268 6.265-5.386 7.201-59.359 22.961-118.748 34.441-178.192 34.413-59.615 0-119.23-11.566-178.76-34.64-2.892-1.134-4.819-3.884-4.819-6.974v-42.125c-10.063-2.438-20.155-4.536-30.219-6.293-11.906-2.069-23.699-3.656-35.35-4.762-4.11-.397-7.114-4.054-6.746-8.136.085-.822.283-1.587.595-2.296l20.75-47.284-20.75-47.255c-1.644-3.798.085-8.192 3.884-9.837 1.275-.566 2.665-.737 3.969-.566 8.391.822 16.611 1.814 24.606 3.004 8.107 1.22 16.413 2.693 24.917 4.423 4.054.822 6.662 4.762 5.84 8.816s-4.762 6.662-8.815 5.839c-7.853-1.616-15.875-3.033-24.124-4.252-3.827-.567-7.625-1.105-11.368-1.559l16.866 38.411c.794 1.842.879 3.997 0 5.981l-17.944 40.905c8.788 1.021 17.519 2.297 26.193 3.799 9.242 1.616 18.482 3.487 27.696 5.669v-43.031c0-2.495 1.219-4.678 3.09-6.039 13.72-11.849 27.299-18.567 40.792-23.273-9.468-3.231-19.021-6.151-28.659-8.815-3.969-1.105-6.322-5.216-5.217-9.213 1.106-3.968 5.217-6.294 9.185-5.215 8.477 2.353 17.037 4.96 25.74 7.852 8.505 2.806 16.866 5.811 25.143 9.014 3.119.907 5.387 3.799 5.387 7.2v42.125c35.916 8.674 71.918 13.039 107.976 13.039 36.085 0 72.172-4.365 108.259-13.096zm52.727-15.874c-12.473-8.391-25.088-12.927-37.73-16.471v28.461c12.585-3.458 25.171-7.455 37.73-11.99zm-283.958 12.047v-28.518c-12.644 3.544-25.258 8.08-37.73 16.499 12.557 4.535 25.143 8.532 37.73 12.019zm-41.614-116.225 1.389-18.029-27.385-32.146c-3.175-3.713-4.563-8.363-4.224-12.87.369-4.507 2.439-8.901 6.151-12.105 1.219-1.02 2.466-1.842 3.771-2.466 1.446-.708 3.005-1.134 4.564-1.502l11.254-2.722-12.926-21.034c-.368-.595-.651-.793-1.134 0l-18.313 29.822c-.992 1.616-2.636 2.863-4.62 3.345l-33.395 8.051c-1.445.454-1.729.227-.397 1.814l21.885 25.683c1.389 1.474 2.211 3.516 2.04 5.698l-2.692 34.726c-.085 1.077.113 1.162 1.162.737l32.061-13.238c1.759-.737 3.771-.794 5.671 0zm334.217-81.783 11.254 2.722c7.712 1.871 13.834 8.079 14.458 16.101.368 4.479-1.021 9.128-4.195 12.841l-27.384 32.146 1.389 18.029 15.109-6.236c1.898-.794 3.94-.737 5.698 0l32.372 13.352c.766.34.906-.028.85-.68l-2.691-34.868c-.17-2.211.623-4.252 2.041-5.727l21.912-25.739c1.389-1.587.85-1.333-.426-1.758l-33.395-8.051c-1.928-.482-3.6-1.644-4.619-3.345l-18.369-29.85c-.483-.794-.766-.482-1.077.057zm-35.378 6.86c-1.928-.482-3.6-1.644-4.648-3.345l-23.586-38.411c-1.502-2.438-3.826-1.984-5.13.142l-18.115 29.509 18.001 4.337c5.216 1.248 10.689 4.99 13.438 9.496 4.706 7.711 3.855 17.548-1.928 24.322l-36.172 42.437 2.041 26.534 22.508-9.298c1.899-.765 3.912-.708 5.67 0l41.982 17.32c2.297.964 3.912-.936 3.742-3.203l-3.486-44.817c-.143-2.211.651-4.252 2.041-5.727l29.169-34.215c2.183-2.523-.453-4.054-2.409-4.677-14.372-3.459-28.745-6.945-43.118-10.404zm-311.057 10.347c-2.012.652-4.592 2.126-2.409 4.677l29.142 34.215c1.417 1.474 2.211 3.515 2.04 5.727l-3.515 45.271c-.142 1.984 1.899 3.544 3.799 2.75l41.954-17.32c1.758-.737 3.799-.793 5.698 0l22.253 9.185 2.041-26.363-35.832-42.04c-3.799-3.855-5.698-10.177-5.272-15.506.709-9.298 7.796-16.64 16.924-18.823l17.774-4.309-18.172-29.538c-1.162-1.899-3.628-2.466-4.903-.368l-23.784 38.694c-.991 1.616-2.636 2.863-4.62 3.345-14.373 3.458-28.746 6.916-43.118 10.403z"/></g></svg>